<svg width="18" height="19" viewBox="0 0 18 19" fill="none" xmlns="http://www.w3.org/2000/svg">
<path d="M7.71758 3.4026L1.36508 14.0076C1.2341 14.2344 1.1648 14.4916 1.16407 14.7535C1.16334 15.0154 1.23119 15.2729 1.3609 15.5005C1.4906 15.728 1.67762 15.9177 1.90336 16.0505C2.12909 16.1833 2.38568 16.2547 2.64758 16.2576H15.3526C15.6145 16.2547 15.8711 16.1833 16.0968 16.0505C16.3225 15.9177 16.5096 15.728 16.6393 15.5005C16.769 15.2729 16.8368 15.0154 16.8361 14.7535C16.8354 14.4916 16.7661 14.2344 16.6351 14.0076L10.2826 3.4026C10.1489 3.18218 9.96062 2.99994 9.73598 2.87346C9.51133 2.74699 9.25788 2.68054 9.00008 2.68054C8.74228 2.68054 8.48883 2.74699 8.26418 2.87346C8.03954 2.99994 7.85128 3.18218 7.71758 3.4026V3.4026Z" stroke="#9CA3AF" stroke-width="1.5" stroke-linecap="round" stroke-linejoin="round"/>
<path d="M9 7.25769V10.258" stroke="#9CA3AF" stroke-width="1.5" stroke-linecap="round" stroke-linejoin="round"/>
<path d="M9 13.2579H9.009" stroke="#9CA3AF" stroke-width="1.66678" stroke-linecap="round" stroke-linejoin="round"/>
</svg>
