<svg width="15" height="15" viewBox="0 0 15 15" fill="none" xmlns="http://www.w3.org/2000/svg">
<path d="M11.75 6.75H12.875C13.1734 6.75 13.4595 6.63147 13.6705 6.4205C13.8815 6.20952 14 5.92337 14 5.625C14 5.32663 13.8815 5.04048 13.6705 4.8295C13.4595 4.61853 13.1734 4.5 12.875 4.5H11.75V8.25M11.75 11.25V14.25H12.5C12.8978 14.25 13.2794 14.092 13.5607 13.8107C13.842 13.5294 14 13.1478 14 12.75C14 12.3522 13.842 11.9706 13.5607 11.6893C13.2794 11.408 12.8978 11.25 12.5 11.25H11.75ZM1.25 2.25C1.25 2.64782 1.40804 3.02936 1.68934 3.31066C1.97064 3.59196 2.35218 3.75 2.75 3.75C3.14782 3.75 3.52936 3.59196 3.81066 3.31066C4.09196 3.02936 4.25 2.64782 4.25 2.25C4.25 1.85218 4.09196 1.47064 3.81066 1.18934C3.52936 0.908035 3.14782 0.75 2.75 0.75C2.35218 0.75 1.97064 0.908035 1.68934 1.18934C1.40804 1.47064 1.25 1.85218 1.25 2.25Z" stroke="black" stroke-width="1.5" stroke-linecap="round" stroke-linejoin="round"/>
<path d="M2.75 3.75V6C2.75 6.19891 2.82902 6.38968 2.96967 6.53033C3.11032 6.67098 3.30109 6.75 3.5 6.75H5.75M5.75 6.75V12C5.75 12.1989 5.82902 12.3897 5.96967 12.5303C6.11032 12.671 6.30109 12.75 6.5 12.75H8.75M5.75 6.75H8.75" stroke="black" stroke-width="1.5" stroke-linecap="round" stroke-linejoin="round"/>
</svg>
