<svg width="9" height="12" viewBox="0 0 9 12" fill="none" xmlns="http://www.w3.org/2000/svg">
<g clip-path="url(#clip0_170_46718)">
<path d="M4.50024 3.75C5.42107 3.75 6.1669 2.91094 6.1669 1.875C6.1669 0.839062 5.42107 0 4.50024 0C3.5794 0 2.83357 0.839062 2.83357 1.875C2.83357 2.91094 3.5794 3.75 4.50024 3.75ZM3.38774 9.58125L3.92107 8.83125L2.63982 7.63125L1.68357 8.97656C1.44607 9.30937 1.43982 9.78281 1.6669 10.125L2.6669 11.625C2.83149 11.8711 3.08149 12 3.33357 12C3.50648 12 3.68357 11.9391 3.83357 11.8125C4.20232 11.5031 4.27523 10.9148 4.00024 10.5L3.38774 9.58125ZM6.36065 7.63125L5.0794 8.83125L5.61273 9.58125L5.00024 10.5C4.72523 10.9148 4.79815 11.5031 5.1669 11.8125C5.3169 11.9391 5.4919 12 5.6669 12C5.92107 12 6.17107 11.8711 6.33357 11.625L7.33357 10.125C7.56065 9.78281 7.5544 9.30937 7.3169 8.97656L6.36065 7.63125ZM8.34815 3.39844C8.08357 2.97422 7.56482 2.87344 7.18773 3.16875L6.3419 3.83672C5.24398 4.70391 3.7544 4.70391 2.65857 3.83672L1.81274 3.17109C1.43565 2.87344 0.916902 2.97656 0.652319 3.39844C0.387735 3.82266 0.479402 4.40625 0.854402 4.70391L1.70024 5.37187C2.0544 5.65078 2.43774 5.86172 2.83357 6.02578V6.75H6.1669V6.02813C6.56274 5.86406 6.94607 5.65313 7.30023 5.37422L8.14607 4.70625C8.52315 4.40625 8.61273 3.82266 8.34815 3.39844Z" fill="#6B7280"/>
</g>
<defs>
<clipPath id="clip0_170_46718">
<rect width="8" height="12" fill="white" transform="translate(0.5)"/>
</clipPath>
</defs>
</svg>
