<svg width="20" height="21" viewBox="0 0 20 21" fill="none" xmlns="http://www.w3.org/2000/svg">
<path d="M16.6681 6.33899H3.33379C2.41324 6.33899 1.66699 7.08524 1.66699 8.00578V16.3398C1.66699 17.2603 2.41324 18.0065 3.33379 18.0065H16.6681C17.5887 18.0065 18.3349 17.2603 18.3349 16.3398V8.00578C18.3349 7.08524 17.5887 6.33899 16.6681 6.33899Z" stroke="#9CA3AF" stroke-width="1.5" stroke-linecap="round" stroke-linejoin="round"/>
<path d="M13.3342 18.0064V4.67204C13.3342 4.22998 13.1586 3.80603 12.846 3.49344C12.5334 3.18086 12.1094 3.00525 11.6674 3.00525H8.33379C7.89172 3.00525 7.46777 3.18086 7.15519 3.49344C6.8426 3.80603 6.66699 4.22998 6.66699 4.67204V18.0064" stroke="#9CA3AF" stroke-width="1.5" stroke-linecap="round" stroke-linejoin="round"/>
</svg>
