<svg width="16" height="17" viewBox="0 0 16 17" fill="none" xmlns="http://www.w3.org/2000/svg">
<path d="M13.3329 5.1665H2.66633C1.92996 5.1665 1.33301 5.76345 1.33301 6.49982V13.1664C1.33301 13.9028 1.92996 14.4998 2.66633 14.4998H13.3329C14.0693 14.4998 14.6662 13.9028 14.6662 13.1664V6.49982C14.6662 5.76345 14.0693 5.1665 13.3329 5.1665Z" stroke="#9CA3AF" stroke-linecap="round" stroke-linejoin="round"/>
<path d="M10.6663 14.4996V3.83308C10.6663 3.47946 10.5258 3.14032 10.2758 2.89028C10.0257 2.64023 9.68659 2.49976 9.33297 2.49976H6.66633C6.31271 2.49976 5.97357 2.64023 5.72353 2.89028C5.47348 3.14032 5.33301 3.47946 5.33301 3.83308V14.4996" stroke="#9CA3AF" stroke-linecap="round" stroke-linejoin="round"/>
</svg>
