<svg width="21" height="21" viewBox="0 0 21 21" fill="none" xmlns="http://www.w3.org/2000/svg">
<path fill-rule="evenodd" clip-rule="evenodd" d="M13.5524 3.61137C12.0751 2.95312 10.4246 2.79005 8.84706 3.14648C7.26951 3.50291 5.84943 4.35974 4.79863 5.58918C3.74782 6.81862 3.12259 8.35479 3.01618 9.96861C2.90976 11.5824 3.32787 13.1874 4.20814 14.5442C5.08841 15.9009 6.38368 16.9368 7.90077 17.4973C9.41786 18.0578 11.0755 18.1129 12.6264 17.6543C14.1774 17.1957 15.5385 16.2481 16.5069 14.9527C17.4753 13.6574 17.999 12.0837 17.9999 10.4664V9.70018C17.9999 9.23994 18.373 8.86685 18.8333 8.86685C19.2935 8.86685 19.6666 9.23994 19.6666 9.70018V10.4668C19.6655 12.4436 19.0254 14.3674 17.8418 15.9507C16.6582 17.5339 14.9946 18.6921 13.099 19.2526C11.2034 19.813 9.17741 19.7457 7.32318 19.0607C5.46896 18.3757 3.88585 17.1096 2.80997 15.4513C1.73408 13.793 1.22306 11.8314 1.35312 9.85894C1.48318 7.88651 2.24736 6.00896 3.53168 4.50631C4.81599 3.00366 6.55164 1.95642 8.47976 1.52079C10.4079 1.08516 12.4252 1.28447 14.2308 2.08899C14.6512 2.27631 14.8401 2.76895 14.6528 3.18935C14.4655 3.60974 13.9728 3.79869 13.5524 3.61137Z" fill="#2F9A44"/>
<path fill-rule="evenodd" clip-rule="evenodd" d="M19.4224 3.21058C19.748 3.53585 19.7482 4.06349 19.423 4.38909L11.0896 12.7308C10.9334 12.8872 10.7214 12.9751 10.5003 12.9751C10.2792 12.9752 10.0672 12.8874 9.91083 12.7311L7.41083 10.2311C7.08539 9.90562 7.08539 9.37798 7.41083 9.05254C7.73626 8.7271 8.2639 8.7271 8.58934 9.05254L10.4998 10.963L18.2439 3.21117C18.5691 2.88557 19.0968 2.88531 19.4224 3.21058Z" fill="#2F9A44"/>
</svg>
