<svg width="92" height="92" viewBox="0 0 92 92" fill="none" xmlns="http://www.w3.org/2000/svg">
<path d="M42.0046 64.6279L69.9328 32.0449L63.6057 26.6217L41.5339 52.3721L32.2155 43.0537L26.323 48.9462L42.0046 64.6279Z" fill="#22C55E"/>
<path d="M91.7692 46.0003C91.7692 71.3134 71.2489 91.8337 45.9359 91.8337C20.6228 91.8337 0.102539 71.3134 0.102539 46.0003C0.102539 20.6873 20.6228 0.166992 45.9359 0.166992C71.2489 0.166992 91.7692 20.6873 91.7692 46.0003ZM83.4359 46.0003C83.4359 25.2896 66.6466 8.50033 45.9359 8.50033C25.2252 8.50033 8.43587 25.2896 8.43587 46.0003C8.43587 66.711 25.2252 83.5003 45.9359 83.5003C66.6466 83.5003 83.4359 66.711 83.4359 46.0003Z" fill="#22C55E"/>
</svg>
