<svg width="10" height="12" viewBox="0 0 10 12" fill="none" xmlns="http://www.w3.org/2000/svg">
<path d="M5 3C5.82843 3 6.5 2.32843 6.5 1.5C6.5 0.671573 5.82843 0 5 0C4.17157 0 3.5 0.671573 3.5 1.5C3.5 2.32843 4.17157 3 5 3Z" fill="#6B7280"/>
<path d="M6.50039 3.75H3.50039C3.38396 3.75 3.26912 3.77711 3.16498 3.82918C3.06084 3.88125 2.97025 3.95685 2.90039 4.05L0.650391 7.05L1.85039 7.95L2.75039 6.75V12H4.25039V9H5.75039V12H7.25039V6.75L8.15039 7.95L9.35039 7.05L7.10039 4.05C7.03053 3.95685 6.93994 3.88125 6.8358 3.82918C6.73166 3.77711 6.61682 3.75 6.50039 3.75Z" fill="#6B7280"/>
</svg>
