<svg width="18" height="18" viewBox="0 0 18 18" fill="none" xmlns="http://www.w3.org/2000/svg">
<path d="M9 9V8.25C8.58579 8.25 8.25 8.58579 8.25 9H9ZM9.06641 9H9.81641C9.81641 8.58579 9.48063 8.25 9.06641 8.25V9ZM9.06641 9.06006V9.81006C9.48063 9.81006 9.81641 9.47427 9.81641 9.06006H9.06641ZM9 9.06006H8.25C8.25 9.47427 8.58579 9.81006 9 9.81006V9.06006ZM15.75 9C15.75 12.7279 12.7279 15.75 9 15.75V17.25C13.5563 17.25 17.25 13.5563 17.25 9H15.75ZM9 15.75C5.27208 15.75 2.25 12.7279 2.25 9H0.75C0.75 13.5563 4.44365 17.25 9 17.25V15.75ZM2.25 9C2.25 5.27208 5.27208 2.25 9 2.25V0.75C4.44365 0.75 0.75 4.44365 0.75 9H2.25ZM9 2.25C12.7279 2.25 15.75 5.27208 15.75 9H17.25C17.25 4.44365 13.5563 0.75 9 0.75V2.25ZM12 9C12 10.6569 10.6569 12 9 12V13.5C11.4853 13.5 13.5 11.4853 13.5 9H12ZM9 12C7.34315 12 6 10.6569 6 9H4.5C4.5 11.4853 6.51472 13.5 9 13.5V12ZM6 9C6 7.34315 7.34315 6 9 6V4.5C6.51472 4.5 4.5 6.51472 4.5 9H6ZM9 6C10.6569 6 12 7.34315 12 9H13.5C13.5 6.51472 11.4853 4.5 9 4.5V6ZM9 9.75H9.06641V8.25H9V9.75ZM8.31641 9V9.06006H9.81641V9H8.31641ZM9.06641 8.31006H9V9.81006H9.06641V8.31006ZM9.75 9.06006V9H8.25V9.06006H9.75Z" fill="#9CA3AF"/>
</svg>
