<svg width="20" height="21" viewBox="0 0 20 21" fill="none" xmlns="http://www.w3.org/2000/svg">
<path d="M13.3347 3.84045H15.0015C15.4436 3.84045 15.8676 4.01606 16.1801 4.32865C16.4927 4.64123 16.6683 5.06519 16.6683 5.50725V17.1748C16.6683 17.6169 16.4927 18.0408 16.1801 18.3534C15.8676 18.666 15.4436 18.8416 15.0015 18.8416H5.00078C4.55872 18.8416 4.13476 18.666 3.82218 18.3534C3.50959 18.0408 3.33398 17.6169 3.33398 17.1748V5.50725C3.33398 5.06519 3.50959 4.64123 3.82218 4.32865C4.13476 4.01606 4.55872 3.84045 5.00078 3.84045H6.66757" stroke="#9CA3AF" stroke-width="1.5" stroke-linecap="round" stroke-linejoin="round"/>
<path d="M12.5015 2.17383H7.50049C7.04016 2.17383 6.66699 2.547 6.66699 3.00733V4.67433C6.66699 5.13466 7.04016 5.50783 7.50049 5.50783H12.5015C12.9618 5.50783 13.335 5.13466 13.335 4.67433V3.00733C13.335 2.547 12.9618 2.17383 12.5015 2.17383Z" stroke="#9CA3AF" stroke-width="1.5" stroke-linecap="round" stroke-linejoin="round"/>
</svg>
