<svg width="20" height="20" viewBox="0 0 20 20" fill="none" xmlns="http://www.w3.org/2000/svg">
<path d="M15.001 6.66724H15.8345C16.7187 6.66724 17.5667 7.0185 18.192 7.64374C18.8172 8.26899 19.1685 9.11701 19.1685 10.0012C19.1685 10.8855 18.8172 11.7335 18.192 12.3587C17.5667 12.984 16.7187 13.3352 15.8345 13.3352H15.001" stroke="#9CA3AF" stroke-width="1.5" stroke-linecap="round" stroke-linejoin="round"/>
<path d="M1.66699 6.66724H15.0015V14.1679C15.0015 15.052 14.6502 15.8999 14.0251 16.5251C13.3999 17.1503 12.552 17.5015 11.6678 17.5015H5.00061C4.11648 17.5015 3.26856 17.1503 2.64339 16.5251C2.01821 15.8999 1.66699 15.052 1.66699 14.1679V6.66724Z" stroke="#9CA3AF" stroke-width="1.5" stroke-linecap="round" stroke-linejoin="round"/>
<path d="M11.667 0.833496V3.334" stroke="#9CA3AF" stroke-width="1.5" stroke-linecap="round" stroke-linejoin="round"/>
<path d="M8.33398 0.833496V3.334" stroke="#9CA3AF" stroke-width="1.5" stroke-linecap="round" stroke-linejoin="round"/>
<path d="M5 0.833496V3.334" stroke="#9CA3AF" stroke-width="1.5" stroke-linecap="round" stroke-linejoin="round"/>
</svg>
