<svg width="21" height="20" viewBox="0 0 21 20" fill="none" xmlns="http://www.w3.org/2000/svg">
<path d="M1.29809 6.76702V6.75352C1.29807 5.4201 1.69297 4.11656 2.43299 3.00734C3.173 1.89812 4.22496 1.03292 5.45614 0.520899C6.68733 0.00887997 8.04259 -0.127019 9.35093 0.130347C10.6593 0.387713 11.8621 1.02681 12.8076 1.96702C13.5515 1.59983 14.3825 1.44545 15.2087 1.52093C16.0348 1.5964 16.8241 1.8988 17.4891 2.3947C18.1542 2.89061 18.6693 3.56072 18.9774 4.331C19.2855 5.10127 19.3747 5.94173 19.2351 6.75952C19.4403 6.77857 19.6395 6.83972 19.82 6.93915C20.0006 7.03859 20.1587 7.17417 20.2846 7.33744C20.4104 7.50072 20.5012 7.68817 20.5514 7.88811C20.6015 8.08805 20.61 8.29618 20.5761 8.49952C19.8981 12.578 18.2211 15.1595 15.5481 16.2455V17.2535C15.5481 17.8503 15.311 18.4226 14.8891 18.8445C14.4671 19.2665 13.8948 19.5035 13.2981 19.5035H7.29809C6.70135 19.5035 6.12905 19.2665 5.7071 18.8445C5.28514 18.4226 5.04809 17.8503 5.04809 17.2535V16.2455C2.37509 15.1595 0.698086 12.578 0.020086 8.49952C-0.0126354 8.30158 -0.00531874 8.0991 0.0416029 7.90404C0.0885245 7.70898 0.174098 7.52532 0.293258 7.36393C0.412418 7.20253 0.562744 7.06667 0.735339 6.9644C0.907935 6.86213 1.09929 6.79552 1.29809 6.76852V6.76702ZM2.79809 6.75352H4.29809C4.29809 5.75896 4.69317 4.80513 5.39644 4.10187C6.0997 3.39861 7.05352 3.00352 8.04809 3.00352C9.04265 3.00352 9.99648 3.39861 10.6997 4.10187C11.403 4.80513 11.7981 5.75896 11.7981 6.75352H13.2981C13.2981 5.36113 12.745 4.02577 11.7604 3.04121C10.7758 2.05664 9.44047 1.50352 8.04809 1.50352C6.6557 1.50352 5.32034 2.05664 4.33578 3.04121C3.35121 4.02577 2.79809 5.36113 2.79809 6.75352ZM5.79809 6.75352H10.2981C10.2981 6.15678 10.061 5.58448 9.63908 5.16253C9.21712 4.74057 8.64482 4.50352 8.04809 4.50352C7.45135 4.50352 6.87905 4.74057 6.4571 5.16253C6.03514 5.58448 5.79809 6.15678 5.79809 6.75352ZM16.0971 6.75352H17.7036C17.8168 6.31023 17.8274 5.84693 17.7345 5.39894C17.6415 4.95095 17.4476 4.53009 17.1673 4.16842C16.8871 3.80674 16.528 3.51381 16.1174 3.31194C15.7069 3.11006 15.2556 3.00458 14.7981 3.00352C14.4381 3.00352 14.0961 3.06652 13.7781 3.18202C14.0436 3.60802 14.2626 4.06702 14.4306 4.54852C14.7163 4.47766 15.0165 4.49225 15.294 4.59048C15.5715 4.68871 15.814 4.86626 15.9915 5.10109C16.1689 5.33592 16.2736 5.61769 16.2923 5.91145C16.3111 6.2052 16.2432 6.498 16.0971 6.75352ZM14.0481 16.5035H6.54809V17.2535C6.54809 17.4524 6.6271 17.6432 6.76776 17.7838C6.90841 17.9245 7.09917 18.0035 7.29809 18.0035H13.2981C13.497 18.0035 13.6878 17.9245 13.8284 17.7838C13.9691 17.6432 14.0481 17.4524 14.0481 17.2535V16.5035ZM6.02009 15.0035H14.5761C16.9551 14.2385 18.4611 12.0755 19.0971 8.25352H1.49909C2.13509 12.0755 3.64109 14.2385 6.02009 15.0035Z" fill="#9CA3AF"/>
</svg>
