<svg width="12" height="14" viewBox="0 0 12 14" fill="none" xmlns="http://www.w3.org/2000/svg">
<path d="M0.666504 3.11765H11.3332M4.6665 10.1765V5.94118M7.33317 10.1765V5.94118M8.6665 13H3.33317C2.59679 13 1.99984 12.3679 1.99984 11.5882V3.82353C1.99984 3.43368 2.29831 3.11765 2.6665 3.11765H9.33317C9.70136 3.11765 9.99984 3.43368 9.99984 3.82353V11.5882C9.99984 12.3679 9.40288 13 8.6665 13ZM4.6665 3.11765H7.33317C7.70136 3.11765 7.99984 2.80161 7.99984 2.41176V1.70588C7.99984 1.31603 7.70136 1 7.33317 1H4.6665C4.29831 1 3.99984 1.31603 3.99984 1.70588V2.41176C3.99984 2.80161 4.29831 3.11765 4.6665 3.11765Z" stroke="#EF4444" stroke-linecap="round" stroke-linejoin="round"/>
</svg>
