<svg width="23" height="19" viewBox="0 0 23 19" fill="none" xmlns="http://www.w3.org/2000/svg">
<path d="M11.7655 6L14.9355 9.16V9C14.9355 8.20435 14.6195 7.44129 14.0569 6.87868C13.4943 6.31607 12.7312 6 11.9355 6H11.7655ZM7.46555 6.8L9.01555 8.35C8.96555 8.56 8.93555 8.77 8.93555 9C8.93555 9.79565 9.25162 10.5587 9.81423 11.1213C10.3768 11.6839 11.1399 12 11.9355 12C12.1555 12 12.3755 11.97 12.5855 11.92L14.1355 13.47C13.4655 13.8 12.7255 14 11.9355 14C10.6095 14 9.3377 13.4732 8.40001 12.5355C7.46233 11.5979 6.93555 10.3261 6.93555 9C6.93555 8.21 7.13555 7.47 7.46555 6.8ZM1.93555 1.27L4.21555 3.55L4.66555 4C3.01555 5.3 1.71555 7 0.935547 9C2.66555 13.39 6.93555 16.5 11.9355 16.5C13.4855 16.5 14.9655 16.2 16.3155 15.66L16.7455 16.08L19.6655 19L20.9355 17.73L3.20555 0M11.9355 4C13.2616 4 14.5334 4.52678 15.4711 5.46447C16.4088 6.40215 16.9355 7.67392 16.9355 9C16.9355 9.64 16.8055 10.26 16.5755 10.82L19.5055 13.75C21.0055 12.5 22.2055 10.86 22.9355 9C21.2055 4.61 16.9355 1.5 11.9355 1.5C10.5355 1.5 9.19555 1.75 7.93555 2.2L10.1055 4.35C10.6755 4.13 11.2855 4 11.9355 4Z" fill="#BAFF66"/>
</svg>
