<svg width="23" height="16" viewBox="0 0 23 16" fill="none" xmlns="http://www.w3.org/2000/svg">
<path d="M11.9355 5C11.1399 5 10.3768 5.31607 9.81423 5.87868C9.25162 6.44129 8.93555 7.20435 8.93555 8C8.93555 8.79565 9.25162 9.55871 9.81423 10.1213C10.3768 10.6839 11.1399 11 11.9355 11C12.7312 11 13.4943 10.6839 14.0569 10.1213C14.6195 9.55871 14.9355 8.79565 14.9355 8C14.9355 7.20435 14.6195 6.44129 14.0569 5.87868C13.4943 5.31607 12.7312 5 11.9355 5ZM11.9355 13C10.6095 13 9.3377 12.4732 8.40001 11.5355C7.46233 10.5979 6.93555 9.32608 6.93555 8C6.93555 6.67392 7.46233 5.40215 8.40001 4.46447C9.3377 3.52678 10.6095 3 11.9355 3C13.2616 3 14.5334 3.52678 15.4711 4.46447C16.4088 5.40215 16.9355 6.67392 16.9355 8C16.9355 9.32608 16.4088 10.5979 15.4711 11.5355C14.5334 12.4732 13.2616 13 11.9355 13ZM11.9355 0.5C6.93555 0.5 2.66555 3.61 0.935547 8C2.66555 12.39 6.93555 15.5 11.9355 15.5C16.9355 15.5 21.2055 12.39 22.9355 8C21.2055 3.61 16.9355 0.5 11.9355 0.5Z" fill="#BAFF66"/>
</svg>
