<svg width="18" height="19" viewBox="0 0 18 19" fill="none" xmlns="http://www.w3.org/2000/svg">
<g clip-path="url(#clip0_1_31991)">
<path d="M13.4995 6.5H14.2496C15.0453 6.5 15.8085 6.81611 16.3712 7.37878C16.9338 7.94146 17.2499 8.70461 17.2499 9.50035C17.2499 10.2961 16.9338 11.0592 16.3712 11.6219C15.8085 12.1846 15.0453 12.5007 14.2496 12.5007H13.4995" stroke="#374151" stroke-width="1.5" stroke-linecap="round" stroke-linejoin="round"/>
<path d="M1.5 6.5H13.5V13.25C13.5 14.0456 13.1839 14.8087 12.6213 15.3713C12.0587 15.9339 11.2957 16.25 10.5 16.25H4.5C3.70435 16.25 2.94129 15.9339 2.37868 15.3713C1.81607 14.8087 1.5 14.0456 1.5 13.25V6.5Z" stroke="#374151" stroke-width="1.5" stroke-linecap="round" stroke-linejoin="round"/>
<path d="M10.4995 1.25V3.50026" stroke="#374151" stroke-width="1.5" stroke-linecap="round" stroke-linejoin="round"/>
<path d="M7.5 1.25V3.50026" stroke="#374151" stroke-width="1.5" stroke-linecap="round" stroke-linejoin="round"/>
<path d="M4.5 1.25V3.50026" stroke="#374151" stroke-width="1.5" stroke-linecap="round" stroke-linejoin="round"/>
</g>
<defs>
<clipPath id="clip0_1_31991">
<rect width="18" height="18" fill="white" transform="translate(0 0.5)"/>
</clipPath>
</defs>
</svg>
