<svg width="21" height="20" viewBox="0 0 21 20" fill="none" xmlns="http://www.w3.org/2000/svg">
<g clip-path="url(#clip0_160_1725)">
<path d="M13.8523 6.25028L16.769 3.33364M18.4356 1.66699L16.769 3.33364L18.4356 1.66699ZM10.4274 9.67525C10.8576 10.0998 11.1997 10.6053 11.4338 11.1626C11.6679 11.7198 11.7895 12.3179 11.7915 12.9224C11.7936 13.5269 11.676 14.1258 11.4456 14.6846C11.2152 15.2435 10.8766 15.7512 10.4492 16.1786C10.0217 16.6061 9.51398 16.9447 8.95514 17.1751C8.39629 17.4055 7.79739 17.5231 7.19293 17.521C6.58846 17.519 5.99036 17.3974 5.43308 17.1633C4.87579 16.9292 4.37032 16.5871 3.94576 16.1569C3.11088 15.2924 2.64891 14.1347 2.65935 12.933C2.6698 11.7312 3.15182 10.5817 4.00159 9.73191C4.85137 8.88213 6.00092 8.40012 7.20264 8.38967C8.40437 8.37923 9.56212 8.8412 10.4265 9.67608L10.4274 9.67525ZM10.4274 9.67525L13.8523 6.25028L10.4274 9.67525ZM13.8523 6.25028L16.3523 8.75026L19.269 5.83362L16.769 3.33364L13.8523 6.25028Z" stroke="#1C2042" stroke-width="1.66678" stroke-linecap="round" stroke-linejoin="round"/>
</g>
<defs>
<clipPath id="clip0_160_1725">
<rect width="20" height="20" fill="white" transform="translate(0.935547)"/>
</clipPath>
</defs>
</svg>
