<svg width="18" height="19" viewBox="0 0 18 19" fill="none" xmlns="http://www.w3.org/2000/svg">
<path d="M8.99993 16.9681C13.142 16.9681 16.4999 13.6103 16.4999 9.46819C16.4999 5.32609 13.142 1.96826 8.99993 1.96826C4.85783 1.96826 1.5 5.32609 1.5 9.46819C1.5 13.6103 4.85783 16.9681 8.99993 16.9681Z" stroke="#38439B" stroke-width="1.5" stroke-linecap="round" stroke-linejoin="round"/>
<path d="M9 13.218H9.009" stroke="#38439B" stroke-width="1.5" stroke-linecap="round" stroke-linejoin="round"/>
<path d="M6.81738 7.21862C6.99373 6.71731 7.34181 6.29459 7.79996 6.02533C8.25812 5.75607 8.79678 5.65764 9.32055 5.74748C9.84433 5.83732 10.3194 6.10963 10.6616 6.51618C11.0039 6.92273 11.1912 7.43729 11.1904 7.96871C11.1904 9.46888 8.94013 10.219 8.94013 10.219" stroke="#38439B" stroke-width="1.5" stroke-linecap="round" stroke-linejoin="round"/>
</svg>
