<svg width="14" height="20" viewBox="0 0 14 20" fill="none" xmlns="http://www.w3.org/2000/svg">
<path d="M4.82447 15.9143H9.67553M12.2287 19H2.27128C1.70724 19 1.25 18.5395 1.25 17.9714V15.2237C1.25 15.0042 1.31977 14.7904 1.44909 14.6136L4.37807 10.6101C4.64353 10.2473 4.64353 9.75269 4.37807 9.38985L1.44909 5.38641C1.31977 5.20964 1.25 4.99584 1.25 4.77626V2.02857C1.25 1.46051 1.70724 1 2.27128 1H11.9734C12.5374 1 12.9947 1.46051 12.9947 2.02857V4.79608C12.9947 5.00337 12.9325 5.20582 12.8163 5.3769L10.0851 9.39712C9.83984 9.75815 9.84813 10.2359 10.1058 10.5881L13.0509 14.6136C13.1802 14.7904 13.25 15.0042 13.25 15.2237V17.9714C13.25 18.5395 12.7928 19 12.2287 19Z" stroke="#9CA3AF" stroke-width="1.5" stroke-linecap="round" stroke-linejoin="round"/>
</svg>
