<svg width="289" height="392" viewBox="0 0 289 392" fill="none" xmlns="http://www.w3.org/2000/svg">
<path opacity="0.08" d="M144.205 391.455C223.847 391.455 288.409 388.199 288.409 384.182C288.409 380.165 223.847 376.909 144.205 376.909C64.5626 376.909 0 380.165 0 384.182C0 388.199 64.5626 391.455 144.205 391.455Z" fill="#1C2042" fill-opacity="0.7"/>
<path d="M212.666 110.382H62.4889C52.062 110.382 43.6094 117.896 43.6094 127.164V300.128C43.6094 309.396 52.062 316.91 62.4889 316.91H212.666C223.093 316.91 231.546 309.396 231.546 300.128V127.164C231.546 117.896 223.093 110.382 212.666 110.382Z" fill="#767DBC" fill-opacity="0.7"/>
<path d="M78.4618 197.037H196.689C203.746 197.037 209.473 202.128 209.473 208.401V226.855C209.473 233.128 203.746 238.219 196.689 238.219H78.4618C71.405 238.219 65.6777 233.128 65.6777 226.855V208.383C65.6777 202.11 71.405 197.019 78.4618 197.019V197.037Z" fill="#F6F6F6"/>
<path d="M78.4618 249.237H196.689C203.746 249.237 209.473 254.328 209.473 260.601V279.056C209.473 285.328 203.746 290.419 196.689 290.419H78.4618C71.405 290.419 65.6777 285.328 65.6777 279.056V260.583C65.6777 254.31 71.405 249.219 78.4618 249.219V249.237Z" fill="#BAFF66" fill-opacity="0.7"/>
<path d="M91.1239 274.401H88.4853L88.5466 271.783L86.0307 273.11L84.7012 271.092L87.2375 269.801L84.7012 268.583L86.0307 266.474L88.5262 267.837V265.237H91.1239V267.837L93.6193 266.528L94.9489 268.583L92.3307 269.801L94.9489 271.092L93.6193 273.165L91.083 271.783L91.1443 274.401H91.1239Z" fill="white"/>
<path d="M114.994 274.401H112.355L112.417 271.783L109.901 273.11L108.592 271.092L111.128 269.801L108.592 268.583L109.901 266.474L112.396 267.837V265.237H114.994V267.837L117.49 266.528L118.799 268.583L116.201 269.801L118.799 271.092L117.49 273.165L114.933 271.783L114.994 274.401Z" fill="white"/>
<path d="M138.885 274.401H136.246L136.307 271.783L133.792 273.11L132.482 271.092L135.019 269.801L132.482 268.583L133.792 266.474L136.287 267.837V265.237H138.885V267.837L141.38 266.528L142.71 268.583L140.112 269.801L142.71 271.092L141.38 273.165L138.844 271.783L138.905 274.401H138.885Z" fill="white"/>
<path d="M162.754 274.401H160.115L160.177 271.783L157.661 273.11L156.352 271.092L158.888 269.801L156.352 268.583L157.661 266.474L160.136 267.837V265.237H162.733V267.837L165.229 266.528L166.538 268.583L163.94 269.801L166.538 271.092L165.229 273.165L162.672 271.783L162.733 274.401H162.754Z" fill="white"/>
<path d="M186.648 274.401H184.01L184.071 271.783L181.555 273.11L180.246 271.092L182.782 269.801L180.246 268.583L181.555 266.474L184.051 267.837L184.01 265.237H186.648V267.837L189.144 266.528L190.453 268.583L187.855 269.801L190.453 271.092L189.144 273.165L186.587 271.783L186.648 274.401Z" fill="white"/>
<path d="M152.219 154.073C152.219 160.892 146.001 166.419 138.33 166.419C130.66 166.419 124.441 160.892 124.441 154.073C124.441 147.255 130.66 141.728 138.33 141.728C146.001 141.728 152.219 147.255 152.219 154.073Z" fill="#BAFF66" fill-opacity="0.7"/>
<path d="M160.504 186.709C158.049 177.855 149.07 171.291 138.351 171.291C127.633 171.291 118.674 177.855 116.199 186.709H160.483H160.504Z" fill="#BAFF66" fill-opacity="0.7"/>
<path d="M142.487 24.3093V0.272949H132.669V24.3093C118.637 26.4002 107.898 37.2548 107.898 50.3093C107.898 63.3639 118.637 74.2366 132.669 76.3275V110.909H142.487V76.3275C156.519 74.2366 167.258 63.382 167.258 50.3093C167.258 37.2366 156.519 26.382 142.487 24.3093ZM137.578 67.9639C126.635 67.9639 117.717 60.0548 117.717 50.3275C117.717 40.6002 126.614 32.6911 137.578 32.6911C148.542 32.6911 157.419 40.6002 157.419 50.3275C157.419 60.0548 148.521 67.9639 137.578 67.9639Z" fill="#BAFF66" fill-opacity="0.7"/>
<path d="M197.021 98.9093H209.887C209.887 122.764 188.041 142.182 161.205 142.182V150.909C193.462 150.909 219.726 127.582 219.726 98.8911V69.8184L197.041 98.8911L197.021 98.9093Z" fill="#BAFF66" fill-opacity="0.7"/>
</svg>
