<svg width="300" height="257" viewBox="0 0 300 257" fill="none" xmlns="http://www.w3.org/2000/svg">
<path opacity="0.08" d="M150 256.259C232.843 256.259 300 254.02 300 251.259C300 248.497 232.843 246.259 150 246.259C67.1573 246.259 0 248.497 0 251.259C0 254.02 67.1573 256.259 150 256.259Z" fill="#767DBC" fill-opacity="0.5"/>
<path d="M242.205 204.033C242.205 204.633 241.62 205.121 240.9 205.121H49.2151C48.4951 205.121 47.9102 204.633 47.9102 204.033V106.396C47.9102 100.583 53.6102 95.8335 60.5852 95.8335H233.55C238.305 95.8335 242.175 99.071 242.175 103.021V204.033H242.205Z" fill="#767DBC" fill-opacity="0.5"/>
<path d="M234.165 197.584C234.165 198.134 233.625 198.571 232.98 198.571H57.1655C56.5055 198.571 55.9805 198.121 55.9805 197.584V113.634C55.9805 107.446 62.0555 102.371 69.4955 102.371H224.205C229.695 102.371 234.18 106.109 234.18 110.684V197.571L234.165 197.584Z" fill="#767DBC" fill-opacity="0.5"/>
<path d="M21.375 194.684V198.646C21.375 202.221 24.855 205.121 29.145 205.121H260.985C265.275 205.121 268.755 202.221 268.755 198.646V194.684H21.375Z" fill="#767DBC" fill-opacity="0.5"/>
<path d="M113.701 194.684V197.459C113.701 198.359 114.586 199.096 115.666 199.096H174.451C175.546 199.096 176.416 198.359 176.416 197.459V194.684H113.686H113.701Z" fill="#DCDAE5" fill-opacity="0.5"/>
<path d="M145.064 0.00854492C108.179 14.096 91.2891 11.5335 91.2891 11.5335V69.7961C98.9691 96.0585 145.064 107.934 145.064 107.934C145.064 107.934 191.159 96.0585 198.839 69.7961V11.5335C198.839 11.5335 181.934 14.096 145.064 0.00854492Z" fill="#BAFF66" fill-opacity="0.5"/>
<path d="M145.064 16.946C119.759 26.6085 108.164 24.8585 108.164 24.8585V64.8335C113.429 82.8585 145.064 90.996 145.064 90.996C145.064 90.996 176.699 82.8585 181.964 64.8335V24.8585C181.964 24.8585 170.369 26.6085 145.064 16.946Z" fill="#767DBC" fill-opacity="0.5"/>
<path d="M101.025 157.021H189.105C194.355 157.021 198.63 160.584 198.63 164.959V177.858C198.63 182.233 194.37 185.796 189.105 185.796H101.025C95.775 185.796 91.5 182.246 91.5 177.858V164.959C91.5 160.584 95.775 157.021 101.025 157.021Z" fill="#BAFF66" fill-opacity="0.5"/>
<path d="M110.461 174.596H108.496L108.541 172.771L106.666 173.708L105.676 172.296L107.566 171.396L105.676 170.546L106.666 169.083L108.511 170.033L108.481 168.221H110.446L110.416 170.033L112.291 169.121L113.281 170.546L111.331 171.396L113.281 172.296L112.291 173.746L110.401 172.771L110.446 174.596H110.461Z" fill="white" fill-opacity="0.7"/>
<path d="M128.25 174.596H126.285L126.33 172.771L124.455 173.708L123.48 172.296L125.37 171.396L123.48 170.546L124.455 169.083L126.3 170.033L126.27 168.221H128.235L128.205 170.033L130.08 169.121L131.055 170.546L129.105 171.396L131.055 172.296L130.08 173.746L128.175 172.771L128.22 174.596H128.25Z" fill="white" fill-opacity="0.7"/>
<path d="M146.041 174.596H144.076L144.121 172.771L142.246 173.708L141.271 172.296L143.161 171.396L141.271 170.546L142.246 169.083L144.091 170.033L144.061 168.221H146.027L145.996 170.033L147.871 169.121L148.862 170.546L146.911 171.396L148.862 172.296L147.871 173.746L145.982 172.771L146.027 174.596H146.041Z" fill="white" fill-opacity="0.7"/>
<path d="M163.831 174.596H161.866L161.911 172.771L160.036 173.708L159.061 172.296L160.951 171.396L159.061 170.546L160.036 169.083L161.881 170.033L161.851 168.221H163.816L163.786 170.033L165.661 169.121L166.636 170.546L164.686 171.396L166.636 172.296L165.661 173.746L163.756 172.771L163.801 174.596H163.831Z" fill="white" fill-opacity="0.7"/>
<path d="M181.622 174.596H179.657L179.702 172.771L177.827 173.708L176.852 172.296L178.742 171.396L176.852 170.546L177.827 169.083L179.687 170.033L179.657 168.221H181.622V170.033L183.482 169.121L184.457 170.546L182.507 171.396L184.457 172.296L183.482 173.746L181.577 172.771L181.622 174.596Z" fill="white" fill-opacity="0.7"/>
<path d="M155.984 124.746C155.984 129.509 151.364 133.371 145.649 133.371C139.934 133.371 135.314 129.509 135.314 124.746C135.314 119.984 139.934 116.134 145.649 116.134C151.364 116.134 155.984 119.996 155.984 124.746Z" fill="#F6F6F6" fill-opacity="0.5"/>
<path d="M162.15 147.546C160.32 141.358 153.63 136.771 145.65 136.771C137.67 136.771 130.98 141.358 129.15 147.546H162.15Z" fill="#F6F6F6" fill-opacity="0.5"/>
</svg>
