<svg width="298" height="261" viewBox="0 0 298 261" fill="none" xmlns="http://www.w3.org/2000/svg">
<path d="M240.304 66.125H49.6094V169.587H240.304V66.125Z" fill="#EBEBF2" fill-opacity="0.7"/>
<path d="M240.304 169.588H49.6094L107.659 106.3H182.254L240.304 169.588Z" fill="#F0F0F2" fill-opacity="0.7"/>
<path d="M232.88 60.975L147.2 1.66255C145.91 0.762549 144.035 0.762549 142.745 1.66255L57.0498 60.975C54.5448 62.7125 56.0148 66.1125 59.2848 66.1125H230.66C233.93 66.1125 235.4 62.7125 232.895 60.975H232.88Z" fill="#767DBC"/>
<path d="M49.625 65.8625L144.965 131.863L240.305 65.8625H49.625Z" fill="#F0F0F2" fill-opacity="0.7"/>
<path d="M215.855 82.7999L144.965 132.862L71.5098 81.0249V30.1124C71.5098 20.7374 80.6298 13.1499 91.8648 13.1499" fill="#FE9A69" fill-opacity="0.5"/>
<path d="M144.965 132.85L71.5098 81.0124V26.8125C71.5098 19.2625 78.8598 13.1375 87.9198 13.1375H196.955C207.395 13.1375 215.855 20.1874 215.855 28.8874V82.7874L144.965 132.85Z" fill="#BAFF66" fill-opacity="0.7"/>
<mask id="mask0_2004_2918" style="mask-type:luminance" maskUnits="userSpaceOnUse" x="71" y="13" width="145" height="120">
<path d="M144.965 132.85L71.5098 81.0124V26.8125C71.5098 19.2625 78.8598 13.1375 87.9198 13.1375H196.955C207.395 13.1375 215.855 20.1874 215.855 28.8874V82.7874L144.965 132.85Z" fill="white"/>
</mask>
<g mask="url(#mask0_2004_2918)">
<path d="M202.444 28.8625H87.4844V33.125H202.444V28.8625Z" fill="white"/>
<path d="M202.444 62.4751H87.4844V66.7376H202.444V62.4751Z" fill="white"/>
<path d="M202.444 96.0876H87.4844V100.35H202.444V96.0876Z" fill="white"/>
</g>
<path d="M270.75 148.994C270.75 177.58 247.58 200.75 219.006 200.75C190.432 200.75 167.25 177.58 167.25 148.994C167.25 120.408 190.42 97.25 219.006 97.25C247.592 97.25 270.75 120.42 270.75 148.994Z" fill="#767DBC"/>
<path d="M190.242 166.391C187.563 170.908 189.364 174.604 194.249 174.604H243.751C248.636 174.604 250.437 170.908 247.758 166.391L223.874 126.138C221.195 121.621 216.816 121.621 214.138 126.138L190.253 166.391H190.242Z" fill="#BAFF66" fill-opacity="0.7"/>
<path d="M196.658 163.952C194.576 167.461 195.983 170.323 199.776 170.323H238.237C242.03 170.323 243.425 167.449 241.354 163.952L222.794 132.67C220.711 129.161 217.312 129.161 215.23 132.67L196.669 163.952H196.658Z" fill="white"/>
<path d="M221.613 155.64H216.401V139.651H221.613V155.64ZM221.613 164.425H216.401V159.61H221.613V164.425Z" fill="#767DBC" fill-opacity="0.7"/>
<path opacity="0.08" d="M149.105 261C231.177 261 297.71 258.929 297.71 256.375C297.71 253.821 231.177 251.75 149.105 251.75C67.0327 251.75 0.5 253.821 0.5 256.375C0.5 258.929 67.0327 261 149.105 261Z" fill="#767DBC"/>
</svg>
