<svg width="7" height="16" viewBox="0 0 7 16" fill="none" xmlns="http://www.w3.org/2000/svg">
<path d="M2 15.5V10.25H0.5V5.75C0.5 5.3375 0.647 4.9845 0.941 4.691C1.235 4.3975 1.588 4.2505 2 4.25001H5C5.4125 4.25001 5.76575 4.397 6.05975 4.691C6.35375 4.985 6.5005 5.33801 6.5 5.75V10.25H5V15.5H2ZM3.5 3.50001C3.0875 3.50001 2.7345 3.35326 2.441 3.05976C2.1475 2.76626 2.0005 2.413 2 2.00001C1.9995 1.58701 2.1465 1.23401 2.441 0.941005C2.7355 0.648005 3.0885 0.501005 3.5 0.500005C3.9115 0.499005 4.26475 0.646005 4.55975 0.941005C4.85475 1.23601 5.0015 1.589 5 2.00001C4.9985 2.41101 4.85175 2.76426 4.55975 3.05976C4.26775 3.35526 3.9145 3.50201 3.5 3.50001Z" fill="#6B7280"/>
</svg>
