<svg width="30" height="31" viewBox="0 0 30 31" fill="none" xmlns="http://www.w3.org/2000/svg">
<path d="M24.5231 25.1851C24.8804 25.6062 25.5114 25.658 25.9326 25.3007C26.3537 24.9434 26.4055 24.3123 26.0482 23.8912L24.5231 25.1851ZM20.2747 18.6316L21.0372 17.9846C20.8472 17.7607 20.5684 17.6316 20.2747 17.6316V18.6316ZM17.1098 18.6316L16.4027 19.3387C16.5903 19.5262 16.8446 19.6316 17.1098 19.6316V18.6316ZM14.9999 16.5217L14.1679 15.967C13.9035 16.3636 13.9558 16.8917 14.2928 17.2288L14.9999 16.5217ZM19.2197 10.192V9.192C18.8854 9.192 18.5731 9.3591 18.3877 9.6373L19.2197 10.192ZM26.6043 11.192C27.1566 11.192 27.6043 10.7443 27.6043 10.192C27.6043 9.63972 27.1566 9.192 26.6043 9.192V11.192ZM8.32242 4.21017C7.9319 3.81965 7.29873 3.81965 6.90821 4.21017C6.51768 4.60069 6.51768 5.23386 6.90821 5.62438L8.32242 4.21017ZM2.34059 13.4118C1.7883 13.4118 1.34059 13.8595 1.34059 14.4118C1.34059 14.9641 1.7883 15.4118 2.34059 15.4118V13.4118ZM10.4795 12.526L9.55106 12.1546L10.4795 12.526ZM27.7142 15.4667C27.7142 22.4886 22.0218 28.181 14.9999 28.181V30.181C23.1264 30.181 29.7142 23.5932 29.7142 15.4667H27.7142ZM14.9999 28.181C7.97802 28.181 2.28564 22.4886 2.28564 15.4667H0.285645C0.285645 23.5932 6.87345 30.181 14.9999 30.181V28.181ZM2.28564 15.4667C2.28564 8.44482 7.97802 2.75244 14.9999 2.75244V0.752441C6.87345 0.752441 0.285645 7.34025 0.285645 15.4667H2.28564ZM14.9999 2.75244C22.0218 2.75244 27.7142 8.44482 27.7142 15.4667H29.7142C29.7142 7.34025 23.1264 0.752441 14.9999 0.752441V2.75244ZM26.0482 23.8912L21.0372 17.9846L19.5121 19.2785L24.5231 25.1851L26.0482 23.8912ZM20.2747 17.6316H17.1098V19.6316H20.2747V17.6316ZM17.8169 17.9245L15.707 15.8146L14.2928 17.2288L16.4027 19.3387L17.8169 17.9245ZM15.832 17.0764L20.0518 10.7467L18.3877 9.6373L14.1679 15.967L15.832 17.0764ZM19.2197 11.192H26.6043V9.192H19.2197V11.192ZM6.90821 5.62438L9.7292 8.44537L11.1434 7.03116L8.32242 4.21017L6.90821 5.62438ZM10.1719 10.6024L9.55106 12.1546L11.408 12.8973L12.0289 11.3451L10.1719 10.6024ZM7.69411 13.4118H2.34059V15.4118H7.69411V13.4118ZM9.55106 12.1546C9.24733 12.9139 8.51192 13.4118 7.69411 13.4118V15.4118C9.32972 15.4118 10.8006 14.416 11.408 12.8973L9.55106 12.1546ZM9.7292 8.44537C10.2949 9.0111 10.4691 9.85954 10.1719 10.6024L12.0289 11.3451C12.6232 9.85948 12.2749 8.16261 11.1434 7.03116L9.7292 8.44537Z" fill="white"/>
</svg>
