<svg width="19" height="19" viewBox="0 0 19 19" fill="none" xmlns="http://www.w3.org/2000/svg">
<path d="M13.6482 12.1521L10.963 9.46696L13.6482 6.78181L12.3518 5.48544L9.66666 8.1706L6.98151 5.48544L5.68515 6.78181L8.3703 9.46696L5.68515 12.1521L6.98151 13.4485L9.66666 10.7633L12.3518 13.4485L13.6482 12.1521Z" fill="#EF4444"/>
<path d="M18.8333 9.46696C18.8333 14.5296 14.7293 18.6336 9.66667 18.6336C4.60406 18.6336 0.5 14.5296 0.5 9.46696C0.5 4.40435 4.60406 0.300293 9.66667 0.300293C14.7293 0.300293 18.8333 4.40435 18.8333 9.46696ZM17.1667 9.46696C17.1667 5.32482 13.8088 1.96696 9.66667 1.96696C5.52453 1.96696 2.16667 5.32482 2.16667 9.46696C2.16667 13.6091 5.52453 16.967 9.66667 16.967C13.8088 16.967 17.1667 13.6091 17.1667 9.46696Z" fill="#EF4444"/>
</svg>
