<svg width="15" height="19" viewBox="0 0 15 19" fill="none" xmlns="http://www.w3.org/2000/svg">
<path d="M3.1665 6.80013V6.03822C3.1665 3.5058 5.17365 1.4668 7.6665 1.4668C9.21936 1.4668 10.5837 2.25799 11.3919 3.4668M3.1665 6.80013C2.3415 6.80013 1.6665 7.48584 1.6665 8.32394V15.943C1.6665 16.7811 2.3415 17.4668 3.1665 17.4668H12.1665C12.9915 17.4668 13.6665 16.7811 13.6665 15.943V8.32394C13.6665 7.48584 12.9915 6.80013 12.1665 6.80013H3.1665ZM7.6665 10.6097C8.4915 10.6097 9.1665 11.2954 9.1665 12.1335C9.1665 12.9716 8.4915 13.6573 7.6665 13.6573C6.8415 13.6573 6.1665 12.9716 6.1665 12.1335C6.1665 11.2954 6.8415 10.6097 7.6665 10.6097Z" stroke="#FDE047" stroke-width="2" stroke-linecap="round"/>
</svg>
