<svg width="20" height="19" viewBox="0 0 20 19" fill="none" xmlns="http://www.w3.org/2000/svg">
<path d="M9.21367 13.1925L14.7993 6.67588L13.5339 5.59123L9.11953 10.7413L7.25585 8.87763L6.07734 10.0561L9.21367 13.1925Z" fill="#22C55E"/>
<path d="M19.1666 9.46696C19.1666 14.5296 15.0625 18.6336 9.99992 18.6336C4.93731 18.6336 0.833252 14.5296 0.833252 9.46696C0.833252 4.40435 4.93731 0.300293 9.99992 0.300293C15.0625 0.300293 19.1666 4.40435 19.1666 9.46696ZM17.4999 9.46696C17.4999 5.32482 14.1421 1.96696 9.99992 1.96696C5.85778 1.96696 2.49992 5.32482 2.49992 9.46696C2.49992 13.6091 5.85778 16.967 9.99992 16.967C14.1421 16.967 17.4999 13.6091 17.4999 9.46696Z" fill="#22C55E"/>
</svg>
