<svg width="21" height="17" viewBox="0 0 21 17" fill="none" xmlns="http://www.w3.org/2000/svg">
<path d="M12.3328 10.8501V5.92811M4.50972 1.3501H10.3341C10.3672 2.52932 11.3335 3.4751 12.5208 3.4751C13.708 3.4751 14.6743 2.52932 14.7074 1.3501H16.1568C17.9111 1.3501 19.3333 2.77225 19.3333 4.52657V12.4073C19.3333 14.1617 17.9111 15.5838 16.1568 15.5838H14.7074C14.6743 14.4046 13.708 13.4588 12.5208 13.4588C11.3335 13.4588 10.3672 14.4046 10.3341 15.5838H4.50973C2.75542 15.5838 1.33326 14.1617 1.33326 12.4073L1.33325 4.52657C1.33325 2.77225 2.75541 1.3501 4.50972 1.3501Z" stroke="#6D84E7" stroke-width="2" stroke-linecap="round" stroke-linejoin="round"/>
</svg>
