<svg width="139" height="29" viewBox="0 0 139 29" fill="none" xmlns="http://www.w3.org/2000/svg">
<path d="M0 17C0 15.8954 0.895431 15 2 15H5C6.10457 15 7 15.8954 7 17V29H0V17Z" fill="#E5E7EB"/>
<path d="M44 17C44 15.8954 44.8954 15 46 15H49C50.1046 15 51 15.8954 51 17V29H44V17Z" fill="#E5E7EB"/>
<path d="M89 17C89 15.8954 89.8954 15 91 15H94C95.1046 15 96 15.8954 96 17V29H89V17Z" fill="#E5E7EB"/>
<path d="M132 21C132 19.8954 132.895 19 134 19H137C138.105 19 139 19.8954 139 21V29H132V21Z" fill="#E5E7EB"/>
<path d="M11 8C11 6.89543 11.8954 6 13 6H16C17.1046 6 18 6.89543 18 8V29H11V8Z" fill="#E5E7EB"/>
<path d="M55 8C55 6.89543 55.8954 6 57 6H60C61.1046 6 62 6.89543 62 8V29H55V8Z" fill="#E5E7EB"/>
<path d="M99 8C99 6.89543 99.8954 6 101 6H104C105.105 6 106 6.89543 106 8V29H99V8Z" fill="#E5E7EB"/>
<path d="M22 2C22 0.89543 22.8954 0 24 0H27C28.1046 0 29 0.895431 29 2V29H22V2Z" fill="#E5E7EB"/>
<path d="M66 2C66 0.89543 66.8954 0 68 0H71C72.1046 0 73 0.895431 73 2V29H66V2Z" fill="#E5E7EB"/>
<path d="M110 2C110 0.89543 110.895 0 112 0H115C116.105 0 117 0.895431 117 2V29H110V2Z" fill="#E5E7EB"/>
<path d="M33 9C33 7.89543 33.8954 7 35 7H38C39.1046 7 40 7.89543 40 9V29H33V9Z" fill="#E5E7EB"/>
<path d="M77 9C77 7.89543 77.8954 7 79 7H82C83.1046 7 84 7.89543 84 9V29H77V9Z" fill="#E5E7EB"/>
<path d="M121 9C121 7.89543 121.895 7 123 7H126C127.105 7 128 7.89543 128 9V29H121V9Z" fill="#E5E7EB"/>
</svg>
