<svg width="19" height="18" viewBox="0 0 19 18" fill="none" xmlns="http://www.w3.org/2000/svg">
<path d="M17.8676 10.0409C17.6788 11.4809 17.1015 12.8423 16.1978 13.9791C15.294 15.1159 14.0979 15.9853 12.7376 16.4939C11.3773 17.0026 9.90421 17.1314 8.47629 16.8665C7.04837 16.6016 5.71949 15.953 4.63218 14.9902C3.54487 14.0275 2.74014 12.7869 2.3043 11.4016C1.86846 10.0162 1.81795 8.53838 2.15819 7.12651C2.49842 5.71464 3.21657 4.42202 4.23561 3.38728C5.25464 2.35254 6.53613 1.61471 7.94263 1.25292C11.8416 0.252923 15.8776 2.25992 17.3676 5.99992" stroke="#1C2042" stroke-width="2" stroke-linecap="round" stroke-linejoin="round"/>
<path d="M17.9355 1V6H12.9355" stroke="#1C2042" stroke-width="2" stroke-linecap="round" stroke-linejoin="round"/>
</svg>
