<svg width="15" height="18" viewBox="0 0 15 18" fill="none" xmlns="http://www.w3.org/2000/svg">
<path d="M3.50024 8.15831C3.72126 8.15831 3.93322 8.07051 4.0895 7.91423C4.24578 7.75795 4.33357 7.54599 4.33357 7.32497C4.33357 7.10396 4.24578 6.892 4.0895 6.73572C3.93322 6.57944 3.72126 6.49164 3.50024 6.49164C3.27923 6.49164 3.06727 6.57944 2.91099 6.73572C2.75471 6.892 2.66691 7.10396 2.66691 7.32497C2.66691 7.54599 2.75471 7.75795 2.91099 7.91423C3.06727 8.07051 3.27923 8.15831 3.50024 8.15831ZM7.66691 9.82331C7.66691 10.0443 7.57911 10.2563 7.42283 10.4126C7.26655 10.5688 7.05459 10.6566 6.83357 10.6566C6.61256 10.6566 6.4006 10.5688 6.24432 10.4126C6.08804 10.2563 6.00024 10.0443 6.00024 9.82331C6.00024 9.60229 6.08804 9.39033 6.24432 9.23405C6.4006 9.07777 6.61256 8.98997 6.83357 8.98997C7.05459 8.98997 7.26655 9.07777 7.42283 9.23405C7.57911 9.39033 7.66691 9.60229 7.66691 9.82331ZM3.50024 13.155C3.72126 13.155 3.93322 13.0672 4.0895 12.9109C4.24578 12.7546 4.33357 12.5427 4.33357 12.3216C4.33357 12.1006 4.24578 11.8887 4.0895 11.7324C3.93322 11.5761 3.72126 11.4883 3.50024 11.4883C3.27923 11.4883 3.06727 11.5761 2.91099 11.7324C2.75471 11.8887 2.66691 12.1006 2.66691 12.3216C2.66691 12.5427 2.75471 12.7546 2.91099 12.9109C3.06727 13.0672 3.27923 13.155 3.50024 13.155ZM0.166908 2.88331C0.166908 1.63581 1.19191 0.545807 2.51691 0.67664C6.83145 1.10412 10.8287 3.13454 13.7186 6.36664C14.6102 7.36081 14.3327 8.83664 13.3194 9.57081C12.0011 10.5275 10.0361 11.9516 8.91691 12.765C8.91524 13.1291 8.91524 13.3658 8.91607 13.675V14.1983C8.91619 14.4115 8.86957 14.6221 8.7795 14.8153C8.68944 15.0085 8.5581 15.1796 8.39476 15.3166C8.23142 15.4535 8.04003 15.553 7.83408 15.608C7.62813 15.6631 7.41263 15.6722 7.20274 15.635C7.03274 16.3233 6.42607 16.9075 5.58274 16.9075C4.99941 16.9075 4.53108 16.6283 4.24191 16.2283L3.13774 17.0258C1.89774 17.9208 0.162741 17.035 0.163575 15.5041L0.166908 2.88331ZM2.39441 1.92081C1.88691 1.87081 1.41607 2.28997 1.41607 2.88331V3.31664C3.50796 3.40463 5.55656 3.94075 7.42338 4.88875C9.29019 5.83675 10.9317 7.17453 12.2369 8.81164L12.5861 8.55831C13.0677 8.20831 13.1294 7.58081 12.7877 7.19997C10.1061 4.20178 6.39735 2.31857 2.39441 1.92247M1.41357 15.5058C1.41348 15.621 1.44524 15.7341 1.50536 15.8324C1.56547 15.9307 1.6516 16.0105 1.75421 16.0629C1.85683 16.1153 1.97194 16.1384 2.08684 16.1295C2.20173 16.1206 2.31192 16.0801 2.40524 16.0125L4.17857 14.735C4.27189 14.6678 4.38192 14.6277 4.49655 14.6191C4.61118 14.6104 4.72598 14.6336 4.82832 14.6859C4.93065 14.7383 5.01656 14.8179 5.07659 14.9159C5.13662 15.014 5.16845 15.1267 5.16857 15.2416C5.16857 15.4666 5.34274 15.6583 5.58274 15.6583C5.63769 15.6589 5.6922 15.6485 5.7431 15.6278C5.79399 15.607 5.84026 15.5764 5.87919 15.5376C5.91813 15.4988 5.94895 15.4527 5.96988 15.4019C5.99081 15.3511 6.00141 15.2966 6.00107 15.2416V14.1991C6.00107 14.0334 6.06692 13.8744 6.18413 13.7572C6.30134 13.64 6.46031 13.5741 6.62607 13.5741C6.79184 13.5741 6.95081 13.64 7.06802 13.7572C7.18523 13.8744 7.25107 14.0334 7.25107 14.1991C7.25107 14.3158 7.34357 14.4075 7.45774 14.4075C7.51299 14.4075 7.56598 14.3855 7.60505 14.3465C7.64412 14.3074 7.66607 14.2544 7.66607 14.1991V13.6808C7.66524 13.2891 7.66441 13.0075 7.67024 12.44C7.67101 12.3424 7.69463 12.2463 7.7392 12.1595C7.78377 12.0727 7.84806 11.9975 7.92691 11.94C8.67857 11.3933 10.0069 10.43 11.2236 9.54831C10.0354 8.07019 8.54632 6.86182 6.85522 6.00348C5.16412 5.14515 3.30973 4.65649 1.41524 4.56997L1.41357 15.5058Z" fill="#6B7280"/>
</svg>
