<svg width="16" height="14" viewBox="0 0 16 14" fill="none" xmlns="http://www.w3.org/2000/svg">
<path d="M1.3335 9.08335V7.1423C1.3335 6.19937 2.07969 5.43498 3.00016 5.43498M1.3335 9.08335C1.3335 10.0263 2.07969 10.7907 3.00016 10.7907H13.0002C13.9206 10.7907 14.6668 10.0263 14.6668 9.08335M1.3335 9.08335V11.6951C1.3335 12.3238 1.83096 12.8334 2.44461 12.8334H3.55572C4.16937 12.8334 4.66683 12.3238 4.66683 11.6951V10.7907M14.6668 9.08335V7.1423C14.6668 6.19937 13.9206 5.43498 13.0002 5.43498H3.00016M14.6668 9.08335V11.6951C14.6668 12.3238 14.1694 12.8334 13.5557 12.8334H12.4446C11.831 12.8334 11.3335 12.3238 11.3335 11.6951V10.7907M3.00016 5.43498L3.89132 2.01162C4.02103 1.51337 4.46153 1.16669 4.96492 1.16669H11.0882C11.5665 1.16669 11.9911 1.48018 12.1423 1.94496L13.2779 5.43498M3.27794 7.99595H5.22239M10.7779 7.99595H12.7224" stroke="#6B7280" stroke-width="1.5" stroke-linecap="round" stroke-linejoin="round"/>
</svg>
