<svg width="16" height="13" viewBox="0 0 16 13" fill="none" xmlns="http://www.w3.org/2000/svg">
<path d="M0.85487 9.13553C0.808217 9.54711 1.10405 9.91858 1.51563 9.96523C1.9272 10.0119 2.29867 9.71606 2.34533 9.30448L0.85487 9.13553ZM2.34676 2.63277L1.86474 2.05818C1.71742 2.18177 1.62319 2.35723 1.60154 2.5483L2.34676 2.63277ZM4.32212 1.95459C4.63946 1.68838 4.6809 1.21532 4.41469 0.897979C4.14847 0.580643 3.67541 0.539201 3.35807 0.805417L4.32212 1.95459ZM13.6549 9.30448C13.7015 9.71606 14.073 10.0119 14.4846 9.96523C14.8961 9.91858 15.192 9.54711 15.1453 9.13553L13.6549 9.30448ZM13.6534 2.63277L14.3987 2.5483C14.377 2.35723 14.2828 2.18177 14.1355 2.05818L13.6534 2.63277ZM12.6421 0.805417C12.3248 0.539201 11.8517 0.580643 11.5855 0.89798C11.3193 1.21532 11.3607 1.68838 11.6781 1.95459L12.6421 0.805417ZM5.3301 9.38001C5.3301 10.2029 4.663 10.87 3.8401 10.87V12.37C5.49143 12.37 6.8301 11.0313 6.8301 9.38001H5.3301ZM3.8401 10.87C3.01719 10.87 2.3501 10.2029 2.3501 9.38001H0.850098C0.850098 11.0313 2.18877 12.37 3.8401 12.37V10.87ZM2.3501 9.38001C2.3501 8.5571 3.01719 7.89001 3.8401 7.89001V6.39001C2.18877 6.39001 0.850098 7.72867 0.850098 9.38001H2.3501ZM3.8401 7.89001C4.663 7.89001 5.3301 8.5571 5.3301 9.38001H6.8301C6.8301 7.72867 5.49143 6.39001 3.8401 6.39001V7.89001ZM6.70899 9.27555C6.96775 8.82823 7.44955 8.53001 8.00011 8.53001V7.03001C6.89245 7.03001 5.92643 7.63271 5.41058 8.52446L6.70899 9.27555ZM8.00011 8.53001C8.55068 8.53001 9.03247 8.82823 9.29123 9.27555L10.5896 8.52446C10.0738 7.63271 9.10778 7.03001 8.00011 7.03001V8.53001ZM13.6501 9.38001C13.6501 10.2029 12.983 10.87 12.1601 10.87V12.37C13.8114 12.37 15.1501 11.0313 15.1501 9.38001H13.6501ZM12.1601 10.87C11.3372 10.87 10.6701 10.2029 10.6701 9.38001H9.1701C9.1701 11.0313 10.5088 12.37 12.1601 12.37V10.87ZM10.6701 9.38001C10.6701 8.5571 11.3372 7.89001 12.1601 7.89001V6.39001C10.5088 6.39001 9.1701 7.72867 9.1701 9.38001H10.6701ZM12.1601 7.89001C12.983 7.89001 13.6501 8.5571 13.6501 9.38001H15.1501C15.1501 7.72867 13.8114 6.39001 12.1601 6.39001V7.89001ZM2.34533 9.30448L3.09199 2.71724L1.60154 2.5483L0.85487 9.13553L2.34533 9.30448ZM2.82879 3.20736L4.32212 1.95459L3.35807 0.805417L1.86474 2.05818L2.82879 3.20736ZM15.1453 9.13553L14.3987 2.5483L12.9082 2.71724L13.6549 9.30448L15.1453 9.13553ZM14.1355 2.05818L12.6421 0.805417L11.6781 1.95459L13.1714 3.20736L14.1355 2.05818Z" fill="#6B7280"/>
</svg>
