<svg width="16" height="17" viewBox="0 0 16 17" fill="none" xmlns="http://www.w3.org/2000/svg">
<path d="M11.6437 4.53777C11.3509 4.83066 11.3509 5.30553 11.6437 5.59843C11.9366 5.89132 12.4115 5.89132 12.7044 5.59843L11.6437 4.53777ZM13.2609 2.31168C12.968 2.01879 12.4932 2.01879 12.2003 2.31168C11.9074 2.60457 11.9074 3.07945 12.2003 3.37234L13.2609 2.31168ZM13.8698 5.0419C14.1627 5.3348 14.6376 5.3348 14.9305 5.0419C15.2234 4.74901 15.2234 4.27414 14.9305 3.98124L13.8698 5.0419ZM8.75016 7.06059C8.75016 6.64637 8.41438 6.31059 8.00016 6.31059C7.58595 6.31059 7.25016 6.64637 7.25016 7.06059H8.75016ZM7.25016 9.31167C7.25016 9.72588 7.58595 10.0617 8.00016 10.0617C8.41438 10.0617 8.75016 9.72588 8.75016 9.31167H7.25016ZM6.3335 1.08331C5.91928 1.08331 5.5835 1.4191 5.5835 1.83331C5.5835 2.24753 5.91928 2.58331 6.3335 2.58331V1.08331ZM9.66683 2.58331C10.081 2.58331 10.4168 2.24753 10.4168 1.83331C10.4168 1.4191 10.081 1.08331 9.66683 1.08331V2.58331ZM12.7044 5.59843L14.0957 4.20712L13.035 3.14646L11.6437 4.53777L12.7044 5.59843ZM12.2003 3.37234L13.035 4.20712L14.0957 3.14646L13.2609 2.31168L12.2003 3.37234ZM13.035 4.20712L13.8698 5.0419L14.9305 3.98124L14.0957 3.14646L13.035 4.20712ZM7.25016 7.06059V9.31167H8.75016V7.06059H7.25016ZM6.3335 2.58331H9.66683V1.08331H6.3335V2.58331ZM12.9168 9.45236C12.9168 12.2 10.7097 14.4166 8.00016 14.4166V15.9166C11.5499 15.9166 14.4168 13.0166 14.4168 9.45236H12.9168ZM8.00016 14.4166C5.29067 14.4166 3.0835 12.2 3.0835 9.45236H1.5835C1.5835 13.0166 4.45043 15.9166 8.00016 15.9166V14.4166ZM3.0835 9.45236C3.0835 6.70473 5.29067 4.48808 8.00016 4.48808V2.98808C4.45043 2.98808 1.5835 5.88816 1.5835 9.45236H3.0835ZM8.00016 4.48808C10.7097 4.48808 12.9168 6.70473 12.9168 9.45236H14.4168C14.4168 5.88816 11.5499 2.98808 8.00016 2.98808V4.48808Z" fill="#6B7280"/>
</svg>
