<svg width="10" height="16" viewBox="0 0 10 16" fill="none" xmlns="http://www.w3.org/2000/svg">
<path d="M8.452 6.075C8.46946 5.94618 8.43605 5.81562 8.35887 5.71101C8.28169 5.6064 8.1668 5.53597 8.03857 5.51464C7.91033 5.49331 7.77882 5.52276 7.67194 5.59676C7.56505 5.67075 7.49118 5.78346 7.466 5.911C7.38057 6.42381 7.1374 6.89723 6.77033 7.26538C6.40326 7.63352 5.93056 7.87807 5.418 7.965C5.28725 7.98715 5.17065 8.06033 5.09385 8.16844C5.01706 8.27655 4.98635 8.41075 5.0085 8.5415C5.03065 8.67225 5.10383 8.78885 5.21194 8.86565C5.32005 8.94244 5.45425 8.97315 5.585 8.951C6.3026 8.82924 6.96439 8.48679 7.47825 7.97131C7.99212 7.45583 8.33249 6.79298 8.452 6.075ZM0.5 0C0.367392 0 0.240215 0.0526785 0.146447 0.146447C0.0526785 0.240215 3.95007e-10 0.367392 3.95007e-10 0.5V6C-1.55717e-05 7.23953 0.460384 8.43488 1.29188 9.35414C2.12337 10.2734 3.26668 10.851 4.5 10.975V15H2.5C2.36739 15 2.24021 15.0527 2.14645 15.1464C2.05268 15.2402 2 15.3674 2 15.5C2 15.6326 2.05268 15.7598 2.14645 15.8536C2.24021 15.9473 2.36739 16 2.5 16H7.5C7.63261 16 7.75979 15.9473 7.85355 15.8536C7.94732 15.7598 8 15.6326 8 15.5C8 15.3674 7.94732 15.2402 7.85355 15.1464C7.75979 15.0527 7.63261 15 7.5 15H5.5V10.975C6.73332 10.851 7.87663 10.2734 8.70812 9.35414C9.53962 8.43488 10 7.23953 10 6V0.5C10 0.367392 9.94732 0.240215 9.85355 0.146447C9.75979 0.0526785 9.63261 0 9.5 0H0.5ZM1 3.5V1H9V3.5H1ZM1 4.5H9V6C9 7.06087 8.57857 8.07828 7.82843 8.82843C7.07828 9.57857 6.06087 10 5 10C3.93913 10 2.92172 9.57857 2.17157 8.82843C1.42143 8.07828 1 7.06087 1 6V4.5Z" fill="#6B7280"/>
</svg>
