<svg width="16" height="17" viewBox="0 0 16 17" fill="none" xmlns="http://www.w3.org/2000/svg">
<path d="M8.58197 8.95008L6.96657 11.748M11.5116 3.10848C10.1434 3.94331 7.37609 6.12689 7.2527 8.18263M12.1762 3.49218C12.1677 5.11202 11.7118 8.63013 9.95681 9.74385M1.2002 13.2931L2.88916 12.5501C3.92119 12.0961 5.05831 11.935 6.17584 12.0845L6.22756 12.0914C7.36228 12.2432 8.43197 12.7092 9.31583 13.4369L10.6668 14.5491M4.44434 6.56122L12.7196 11.3389C13.1876 11.6092 13.7861 11.4488 14.0563 10.9808C15.5876 8.32852 14.6789 4.93711 12.0267 3.40584L11.6611 3.19477C9.00884 1.6635 5.61743 2.57223 4.08616 5.22447C3.81593 5.69251 3.97629 6.291 4.44434 6.56122Z" stroke="#6B7280" stroke-width="1.5" stroke-linecap="round" stroke-linejoin="round"/>
</svg>
