<svg width="12" height="12" viewBox="0 0 12 12" fill="none" xmlns="http://www.w3.org/2000/svg">
<path d="M7.79545 2.6731C7.79545 3.63979 6.97127 4.49994 6 4.49994C5.02873 4.49994 4.20455 3.63979 4.20455 2.6731C4.20455 1.67054 5.06273 0.75 6 0.75C6.93727 0.75 7.79545 1.67054 7.79545 2.6731ZM11.25 9.18525C11.25 9.6104 11.0227 10.093 10.2215 10.5106C9.39557 10.9411 8.03268 11.2501 6 11.2501C3.96732 11.2501 2.60443 10.9411 1.77848 10.5106C0.977317 10.093 0.75 9.6104 0.75 9.18525C0.75 8.87033 1.05082 8.35475 2.0759 7.87384C3.04141 7.42089 4.42797 7.1204 6 7.1204C7.57203 7.1204 8.95859 7.42089 9.9241 7.87384C10.9492 8.35475 11.25 8.87033 11.25 9.18525Z" stroke="white" stroke-width="1.5"/>
</svg>
